<svg version="1.2" xmlns="http://www.w3.org/2000/svg" viewBox="0 0 1199 167" width="1199" height="167">
	<style>
		.s0 { fill: #0f1517 } 
		.s1 { fill: #f9fafb } 
		.s2 { fill: #f4f5f5 } 
		.s3 { fill: #f5f5f5 } 
		.s4 { fill: #fafbfb } 
		.s5 { fill: #ffffff } 
		.s6 { fill: #fcfdff } 
		.s7 { fill: #000000 } 
	</style>
	<g id="Layer 1">
		
		<g id="&lt;Group&gt;">
			<g id="&lt;Group&gt;">
				<path id="&lt;Path&gt;" class="s1" d="m299.96 162.64c-12.28 0-23.9-0.03-35.52 0.02-4.23 0.02-7.54-1.07-10.08-4.33-32.43-41.64-64.95-83.22-97.67-125.1 30.04-7.88 41.59-4.25 57.18 15.88 24.77 31.99 50.08 63.64 74.92 95.58 3.99 5.14 9.69 9.61 11.17 17.95z" data-index="1"></path>
				<path id="&lt;Path&gt;" class="s2" d="m152.6 163.13c13.93-17.97 26.22-33.75 38.38-49.62 1.79-2.34 3.38-3.57 6.76-2.32 9.33 3.47 16.54 25.02 13.12 33.18-10.7 25.52-34.21 17.7-58.26 18.76z" data-index="2"></path>
				<path id="&lt;Path&gt;" class="s3" d="m300.86 30.03c-13.29 17.19-24.51 31.26-35.16 45.67-5.25 7.11-8.34 5.35-13.27-0.4-15.81-18.42-15.78-20.18-2.85-37.32 4.29-5.68 8.6-8.33 16.21-8.05 10.57 0.4 21.18 0.1 35.07 0.1z" data-index="3"></path>
				<path id="&lt;Path&gt;" class="s4" d="m596.76 97.33q0.03 27.83 0.06 55.67c0 3.12-0.24 6.74-2.77 8.57-1.66 1.18-3.83 1.24-5.87 1.25q-34.04 0.21-68.08 0.41c-4.27 0.03-8.66 0.03-12.61-1.59-3.59-1.48-6.53-4.19-9.37-6.84-6.28-5.85-12.59-11.74-17.72-18.62-9.64-12.93-14.66-28.84-16.78-44.84-2.11-16-1.48-32.21-0.77-48.33 0.12-2.61 0.25-5.27 1.22-7.69 2.6-6.45 12.31-7.39 18.27-6.52 4.26 0.63 8.51 3.21 9.85 7.3 0.56 1.73 0.57 3.58 0.58 5.41q0.08 33.83 0.16 67.67c0.02 6.97 0.53 15 6.11 19.19 3.88 2.92 9.11 3.05 13.96 3.06q21.42 0.05 42.84 0.11c2.6 0 5.42-0.06 7.46-1.68 2.75-2.17 2.97-6.2 2.95-9.71q-0.18-39.39-0.37-78.78c-0.03-5.78 1.77-9.78 7.89-11.25 8.38-2.03 21.98-2.03 22.93 8.72 1.69 19.16 0.04 39.24 0.06 58.49z" data-index="4" style="opacity: 1;"></path>
				<path id="&lt;Path&gt;" class="s5" d="m366.56 161.17c-15.82 0-31.63-0.11-47.45 0.07-4.08 0.05-5.67-1.13-5.48-5.39 0.3-6.61 0.25-13.26-0.03-19.87-0.17-3.99 1.26-5.16 5.19-5.15 29.23 0.09 58.45-0.06 87.68-0.02 3.55 0 6.64-0.57 8.59-3.75 1.64-2.66 4.66-4.96 2.6-8.78-2.07-3.82-4.13-6.77-9.49-6.69-21.54 0.32-43.08 0.06-64.62 0.2-3.23 0.02-5.33-1.08-7.27-3.52-8.69-10.94-12.94-21.83-21.82-32.61-1.89-2.3-2.01-3.9-0.1-6.2 9.23-11.09 13.86-22.26 22.93-33.47 1.75-2.16 3.63-3.16 6.5-3.16 32.08 0.07 66.42 0.06 98.5-0.05 3.29-0.01 4.59 0.95 4.49 4.37-0.2 6.92-0.26 13.86 0.01 20.78 0.17 4.09-1.42 5.03-5.27 5.02-29.07-0.12-60.4 0.02-89.47-0.06-4.11-0.01-6.91 1.5-8.75 5.04-3.25 6.29 1.46 14.19 8.56 14.21 21.85 0.04 43.69 0.06 65.53-0.06 3.14-0.02 5.36 0.81 7.33 3.32 8.26 10.51 12.1 20.95 20.58 31.27 2.06 2.51 2.41 4.34 0.22 6.94-9.58 11.38-14.55 22.87-23.99 34.37-1.89 2.29-4.11 3.12-7.07 3.1-15.96-0.11-31.93-0.05-47.9-0.05q0 0.07 0 0.14z" data-index="5"></path>
				<path id="&lt;Path&gt;" class="s5" d="m618.8 96.2c0-20.4 0.09-40.8-0.07-61.2-0.04-3.86 1.07-5.06 5-5.04 33.8 0.13 67.6 0.15 101.41-0.04 5.18-0.03 8.55 1.62 11.74 5.8 8.29 10.87 17.05 21.39 25.86 31.85 2.3 2.75 2.15 4.56-0.01 7.18q-13.07 15.82-25.78 31.92c-2.62 3.32-5.45 5.4-9.86 4.71-1.14-0.18-2.68-0.55-3.22 1.03-0.43 1.27 0.85 1.88 1.54 2.66 12.45 14.31 24.92 28.6 37.34 42.93 0.94 1.08 2.95 2.02 2.13 3.71-0.77 1.62-2.8 0.89-4.28 0.9-9.81 0.06-19.63-0.13-29.44 0.15-3.7 0.11-6.14-1.26-8.38-3.93q-23.38-27.86-46.86-55.63c-5.32-6.3-10.74-12.51-16.12-18.75-0.68-0.79-2.14-1.32-1.73-2.51 0.52-1.54 2.12-0.91 3.27-0.92 19.32-0.04 38.63-0.05 57.95-0.07 5.24-0.01 10.61-5.2 10.52-10.13-0.09-5.12-4.98-9.82-10.35-9.82-21.65-0.01-43.31 0.1-64.96-0.03-3.93-0.03-5.05 1.28-5.03 5.14 0.2 30.05 0.19 60.11 0.26 90.17 0.02 6.27 0.05 6.27-6.11 6.31-6.38 0.04-12.78-0.11-19.15 0.2-4.13 0.21-5.77-0.83-5.72-5.38 0.24-20.4 0.1-40.81 0.1-61.21q-0.02 0-0.05 0z" data-index="6" style="opacity: 1;"></path>
				<path id="&lt;Path&gt;" class="s5" d="m951.02 29.92c10.75 0 21.5 0.08 32.25-0.04 4.39-0.04 7.75 1.48 10.48 4.95 11.47 14.51 23.2 28.79 35.3 42.79 1.63 1.88 2.73 3.96 2.68 6.72q-0.22 11.68 0.05 23.36c0.07 3.02-0.88 5.42-2.75 7.67-11.55 13.84-23.12 27.67-34.58 41.59-3.21 3.89-7.01 5.67-12.13 5.64-20.88-0.12-41.76-0.06-62.63 0.07-4.2 0.03-7.66-1.23-10.32-4.39-12.43-14.75-24.8-29.55-37.21-44.32-1.5-1.79-1.85-3.82-1.82-6.09 0.1-7.63 0.21-15.26 0.09-22.9-0.05-3.02 0.99-5.39 2.91-7.57q17.68-20.15 34.18-41.28c3.42-4.38 7.36-6.51 13.12-6.29 10.11 0.39 20.25 0.11 30.38 0.11q0-0.01 0-0.02z" data-index="7" style="opacity: 1;"></path>
				<path id="&lt;Path&gt;" class="s5" d="m92.45 131.35c14.64 0.01 29.28 0.09 43.92-0.05 3.23-0.04 4.44 0.91 4.38 4.2-0.15 7.63-0.09 15.27 0.04 22.89 0.05 2.83-0.63 4.28-3.87 4.27-29.28-0.08-58.56-0.04-87.85-0.02-3.34 0-6.05-1.37-8.13-3.88-12.61-15.16-25.17-30.38-37.81-45.52-1.33-1.59-1.56-3.27-1.56-5.17 0-7.63 0.12-15.27-0.17-22.89-0.11-3.1 1.02-5.36 2.84-7.56 11.72-14.1 23.48-28.16 35.07-42.36 2.99-3.65 6.32-5.43 11.15-5.41q42.75 0.2 85.5-0.04c3.95-0.03 5.13 1.24 4.97 5.08q-0.43 10.27-0.06 20.54c0.15 4.19-1.1 5.64-5.53 5.61-27.88-0.17-55.76-0.05-83.64-0.01-12.9 0.02-18.8 5.79-18.88 18.76-0.08 11.84 0.01 23.67 0.17 35.5 0.14 10.26 6.04 15.99 16.47 16.04 14.33 0.07 28.66 0.02 42.99 0.02z" data-index="8"></path>
				<path id="&lt;Path&gt;" class="s6" d="m96.98 111.66c-12.61 0-25.22-0.19-37.82 0.1-4.65 0.11-5.89-1.49-5.71-5.91 0.3-6.99 0.16-14.01-0.13-21-0.12-2.9 0.74-3.96 3.58-3.95q40.39 0.06 80.79 0.01c2.39-0.01 3.23 0.82 3.17 3.33-0.18 7.62-0.26 15.25-0.03 22.87 0.11 3.6-1.25 4.52-4.61 4.48-13.08-0.14-26.16-0.05-39.24-0.05q0 0.06 0 0.12z" data-index="9"></path>
				<path id="&lt;Path&gt;" class="s7" d="m951.35 131.37c-11.06 0-22.12 0.06-33.18-0.01-10.29-0.07-16.8-6.64-16.85-16.99q-0.1-17.52-0.05-35.04c0.04-11.8 6.35-18.21 18.18-18.27q31.78-0.18 63.56-0.1c11.91 0.03 18.13 6.28 18.19 18.15q0.09 17.52-0.14 35.04c-0.15 11.26-6.26 17.21-17.47 17.24-10.75 0.03-21.49 0.01-32.24 0.01q0-0.01 0-0.03z" data-index="10" style="opacity: 1; visibility: visible;"></path>
				<g id="&lt;Group&gt;">
					<path id="&lt;Path&gt;" class="s5" d="m822.6 116.02c0-12.21 0.19-24.42-0.06-36.62-0.3-15.01-6-20.59-20.82-21.01-2.85-0.08-5.71-0.01-8.56-0.01-19.5 0.07-19.09 0.06-19.75-19.69-0.27-8.02 1.5-9.69 10-11.36 26.92-5.26 37.33 14.34 51.91 29.7 14.57 15.34 19.88 32.12 17.84 52.75-1.35 13.7-0.59 27.66-0.1 41.48 0.23 6.63-1.25 9-8.51 9.02-21.96 0.06-21.96 0.42-21.95-21.06q0-11.6 0-23.2z" data-index="11" style="opacity: 1;"></path>
					<path id="&lt;Path&gt;" class="s4" d="m853.2 17.83c2.1 9.5-0.59 16.43-14.31 14.34-7.67-1.16-18.69 3.33-16.47-11.61 1.28-8.62-5.54-21.35 13.04-19.92 17.58 1.36 17.66 0.22 17.74 17.19z" data-index="12" style="opacity: 1;"></path>
				</g>
			</g>
			<path id="&lt;Path&gt;" class="s5" d="m1196.53 96.2c0 20.73-0.1 41.46 0.07 62.19 0.04 4.01-1.16 5.12-5.1 4.96-7.66-0.32-15.35-0.12-23.02 0.07-2.59 0.06-4.4-0.74-6.1-2.7q-35.33-40.55-70.79-80.98c-1.45-1.65-2.63-4.92-5.02-4.03-2.25 0.84-0.87 3.99-0.87 6.09-0.02 25.47 0 50.95 0.15 76.42 0.03 3.6-0.95 5.15-4.76 5.06-7.35-0.17-14.72-0.07-22.07 0.18-3.1 0.11-4.16-0.99-4.16-4.05q0.05-63.36-0.06-126.73c0-2.77 0.81-3.97 3.76-3.93 8.61 0.12 17.23 0.07 25.84-0.08 2.48-0.04 4.06 1.06 5.58 2.81 23.46 27.12 46.93 54.22 70.47 81.27 1.25 1.43 2.31 4.38 4.44 3.48 2.04-0.85 0.88-3.72 0.88-5.68-0.02-25.64-0.06-51.27-0.26-76.9-0.03-3.63 0.9-5.13 4.72-5.01 7.2 0.22 14.42 0.2 21.61-0.1 3.9-0.17 4.74 1.45 4.72 5.01-0.11 20.88-0.06 41.77-0.06 62.65q0.01 0 0.03 0z" data-index="13"></path>
		</g>
	</g>
</svg>