<svg xmlns="http://www.w3.org/2000/svg" version="1.1" viewBox="49 221 402 61" style="max-height: 500px" width="402" height="61">
<path transform="translate(272.126708984375,231.64990234375)" fill="#faf7f7" d="M0 0 C1.698382 -0.01651587 3.39669576 -0.04374825 5.09472656 -0.08203125 C7.54602036 -0.1370198 9.99568081 -0.1587101 12.44750977 -0.17333984 C13.20086105 -0.19600922 13.95421234 -0.21867859 14.73039246 -0.24203491 C20.45332285 -0.21928867 22.83841539 1.30876684 26.87329102 5.35009766 C28.80688477 7.44775391 28.80688477 7.44775391 30.31079102 9.41259766 C30.82512695 10.06357422 31.33946289 10.71455078 31.86938477 11.38525391 C32.87329102 13.35009766 32.87329102 13.35009766 32.81079102 15.24072266 C31.47088226 18.25551737 29.54582173 20.50893685 27.43579102 23.03759766 C26.63270508 24.01083984 25.82961914 24.98408203 25.00219727 25.98681641 C22.87329102 28.35009766 22.87329102 28.35009766 20.87329102 29.35009766 C21.47657227 30.00236328 22.07985352 30.65462891 22.70141602 31.32666016 C26.8049986 35.81412628 30.72029293 40.14079646 33.87329102 45.35009766 C22.17167265 47.01934869 22.17167265 47.01934869 17.03344727 43.28759766 C14.45490565 40.41983573 12.15360458 37.45961615 9.87329102 34.35009766 C8.23496507 32.36471201 6.58942041 30.38525523 4.93579102 28.41259766 C3.57242804 26.73251878 2.21719592 25.04578136 0.87329102 23.35009766 C0.29450195 22.62693359 -0.28428711 21.90376953 -0.88061523 21.15869141 C-2.12670898 19.35009766 -2.12670898 19.35009766 -2.12670898 17.35009766 C5.13329102 17.02009766 12.39329102 16.69009766 19.87329102 16.35009766 C20.20329102 15.03009766 20.53329102 13.71009766 20.87329102 12.35009766 C12.62329102 12.35009766 4.37329102 12.35009766 -4.12670898 12.35009766 C-4.45670898 23.24009766 -4.78670898 34.13009766 -5.12670898 45.35009766 C-8.42670898 45.35009766 -11.72670898 45.35009766 -15.12670898 45.35009766 C-16.65755323 43.81925341 -16.25386677 42.43806622 -16.25610352 40.30517578 C-16.25925568 39.44758667 -16.26240784 38.58999756 -16.26565552 37.7064209 C-16.26363129 36.77414673 -16.26160706 35.84187256 -16.25952148 34.88134766 C-16.26047821 33.93070435 -16.26143494 32.98006104 -16.26242065 32.00061035 C-16.26310255 29.98640883 -16.2612476 27.97220513 -16.25708008 25.95800781 C-16.25173196 22.86339411 -16.25702476 19.76892556 -16.26342773 16.67431641 C-16.26276695 14.72249317 -16.2614858 12.77067002 -16.25952148 10.81884766 C-16.26154572 9.88657349 -16.26356995 8.95429932 -16.26565552 7.99377441 C-16.26250336 7.1361853 -16.2593512 6.27859619 -16.25610352 5.39501953 C-16.25530792 4.63636597 -16.25451233 3.8777124 -16.25369263 3.09606934 C-15.8903675 -1.89949839 -4.00585995 0.0285499 0 0 Z"/>
<path transform="translate(402,232)" fill="#faf7f7" d="M0 0 C11 0 11 0 14.6015625 2.67578125 C15.64157704 3.86050932 16.64890981 5.07457481 17.625 6.3125 C18.16495605 6.94389893 18.70491211 7.57529785 19.26123047 8.22583008 C20.87380456 10.12583389 22.43935347 12.0572572 24 14 C24.90438428 15.09269271 25.81050694 16.18395008 26.71875 17.2734375 C28.22707356 19.1000761 29.72158933 20.93830205 31.1953125 22.79296875 C33.11162142 25.21141291 33.11162142 25.21141291 36 28 C36.33 18.76 36.66 9.52 37 0 C40.3 0 43.6 0 47 0 C47.16737766 6.08708158 47.32796157 12.17428948 47.48217773 18.26171875 C47.5356348 20.33370825 47.59096697 22.40565024 47.64819336 24.47753906 C47.73000096 27.45106763 47.80512222 30.42470039 47.87890625 33.3984375 C47.90594131 34.32868744 47.93297638 35.25893738 47.96083069 36.21737671 C47.98092697 37.07811798 48.00102325 37.93885925 48.02172852 38.82568359 C48.04171402 39.58513275 48.06169952 40.34458191 48.08229065 41.12704468 C48 43 48 43 47 45 C43.04358425 45.9990148 39.95481377 46.07001517 36 45 C30.85105974 41.26956767 26.94624244 35.92388067 23 31 C22.09497291 29.89613166 21.18880516 28.79319706 20.28125 27.69140625 C18.77104265 25.84532486 17.27629612 23.98637015 15.8046875 22.109375 C13.99430757 19.80002998 13.99430757 19.80002998 11 18 C11.00523682 18.78238037 11.01047363 19.56476074 11.01586914 20.37084961 C11.03657106 23.89305833 11.04963838 27.4152543 11.0625 30.9375 C11.07087891 32.16919922 11.07925781 33.40089844 11.08789062 34.66992188 C11.09111328 35.83974609 11.09433594 37.00957031 11.09765625 38.21484375 C11.10289307 39.29886475 11.10812988 40.38288574 11.11352539 41.49975586 C11 44 11 44 10 45 C6.7 45 3.4 45 0 45 C0 30.15 0 15.3 0 0 Z"/>
<path transform="translate(167.43994140625,232.77294921875)" fill="#faf7f7" d="M0 0 C1.47057839 0.00031709 2.94118001 0.01164091 4.41162109 0.03173828 C5.18565277 0.03456818 5.95968445 0.03739807 6.75717163 0.04031372 C9.23329016 0.05152325 11.70904909 0.07662875 14.18505859 0.10205078 C15.86213671 0.1120796 17.53922049 0.12120562 19.21630859 0.12939453 C23.33103082 0.15146504 27.44548371 0.18599977 31.56005859 0.22705078 C33.18657381 3.48008122 32.67459015 6.6193068 32.56005859 10.22705078 C30.60907774 12.17803163 26.91330931 11.48120186 24.24365234 11.54345703 C23.51259781 11.56423813 22.78154327 11.58501923 22.02833557 11.60643005 C19.68484203 11.67200102 17.34123321 11.7308451 14.99755859 11.78955078 C13.41226004 11.83272886 11.8269733 11.87634291 10.24169922 11.92041016 C6.34793822 12.02768998 2.45406087 12.12893568 -1.43994141 12.22705078 C-1.43994141 13.54705078 -1.43994141 14.86705078 -1.43994141 16.22705078 C-0.69421875 16.19450195 0.05150391 16.16195312 0.81982422 16.12841797 C21.61487082 15.43783138 21.61487082 15.43783138 26.57666016 18.45214844 C29.60129262 21.52134818 31.25146737 25.17286396 32.56005859 29.22705078 C31.83960774 30.60663753 31.10814109 31.98047234 30.37255859 33.35205078 C29.96650391 34.11775391 29.56044922 34.88345703 29.14208984 35.67236328 C25.21521107 42.0135453 25.21521107 42.0135453 22.56005859 44.22705078 C19.63848339 44.78149755 17.56766667 44.96099243 14.66943359 44.84814453 C13.92421448 44.84202652 13.17899536 44.83590851 12.41119385 44.8296051 C10.0427476 44.80276081 7.67760909 44.73363242 5.31005859 44.66455078 C3.70332113 44.64301752 2.0965462 44.62410906 0.48974609 44.60791016 C-11.22766739 44.4393248 -11.22766739 44.4393248 -12.43994141 43.22705078 C-12.43994141 39.92705078 -12.43994141 36.62705078 -12.43994141 33.22705078 C-1.54994141 32.89705078 9.34005859 32.56705078 20.56005859 32.22705078 C20.56005859 30.90705078 20.56005859 29.58705078 20.56005859 28.22705078 C19.82368164 28.22294189 19.08730469 28.21883301 18.32861328 28.21459961 C14.98828164 28.18168086 11.64977809 28.11103764 8.31005859 28.03955078 C7.15119141 28.03375 5.99232422 28.02794922 4.79833984 28.02197266 C-3.77263437 27.79902824 -3.77263437 27.79902824 -7.06494141 24.97705078 C-7.51869141 24.06955078 -7.97244141 23.16205078 -8.43994141 22.22705078 C-8.92978516 21.41623047 -9.41962891 20.60541016 -9.92431641 19.77001953 C-10.34197266 18.99271484 -10.75962891 18.21541016 -11.18994141 17.41455078 C-11.61791016 16.62435547 -12.04587891 15.83416016 -12.48681641 15.02001953 C-12.80134766 14.42833984 -13.11587891 13.83666016 -13.43994141 13.22705078 C-12.15047836 11.43379752 -10.85829788 9.642498 -9.56494141 7.85205078 C-8.48599609 6.35544922 -8.48599609 6.35544922 -7.38525391 4.82861328 C-3.9706382 0.26207903 -3.9706382 0.26207903 0 0 Z"/>
<path transform="translate(367.25,231.625)" fill="#faf7f7" d="M0 0 C1.03769531 -0.03738281 2.07539063 -0.07476562 3.14453125 -0.11328125 C11.75020394 -0.21219703 11.75020394 -0.21219703 15.21875 2.58203125 C17.55418756 5.15894152 19.85221298 7.7020311 22 10.4375 C22.66515625 11.27410156 23.3303125 12.11070312 24.015625 12.97265625 C27.40911772 17.67310224 28.63213451 21.52083462 27.75 27.375 C26.51928321 29.78292415 25.45020469 31.32937113 23.75 33.375 C23.02425781 34.2928125 22.29851562 35.210625 21.55078125 36.15625 C14.36175769 45.13963532 14.36175769 45.13963532 10.3425293 45.7265625 C-9.54861598 47.528559 -9.54861598 47.528559 -15.73242188 43.93066406 C-20.636248 39.65067043 -26.48929906 32.94785 -27.59375 26.30859375 C-28.00486751 19.74099154 -26.56869286 16.46998046 -22.265625 11.5546875 C-21.26789063 10.47574219 -21.26789063 10.47574219 -20.25 9.375 C-18.97896114 7.87517415 -17.70811749 6.37518284 -16.4375 4.875 C-11.60465551 -0.69880691 -7.07721535 0.09528687 0 0 Z M-16.25 14.375 C-16.62866276 17.35659657 -16.76434905 19.9051562 -16.6875 22.875 C-16.69458984 23.64714844 -16.70167969 24.41929687 -16.70898438 25.21484375 C-16.72000108 29.37122756 -16.72000108 29.37122756 -15.10375977 33.09423828 C-12.43468283 34.93830224 -10.37928588 34.76348986 -7.15625 34.7734375 C-5.36380859 34.77923828 -5.36380859 34.77923828 -3.53515625 34.78515625 C-2.28605469 34.77355469 -1.03695313 34.76195312 0.25 34.75 C2.12365234 34.76740234 2.12365234 34.76740234 4.03515625 34.78515625 C5.23011719 34.78128906 6.42507813 34.77742188 7.65625 34.7734375 C9.30077148 34.76836182 9.30077148 34.76836182 10.97851562 34.76318359 C13.74118779 34.59003871 13.74118779 34.59003871 15.60375977 33.07836914 C17.57210325 30.1533143 17.2210039 26.83966921 17.1875 23.4375 C17.20748047 22.72142578 17.22746094 22.00535156 17.24804688 21.26757812 C17.24496913 17.94669058 17.1112482 15.85107823 15.07641602 13.16943359 C12.18250179 10.93727182 10.65517367 10.87219744 7.03125 10.87890625 C5.93425781 10.87826172 4.83726562 10.87761719 3.70703125 10.87695312 C2.56621094 10.89693359 1.42539062 10.91691406 0.25 10.9375 C-0.89082031 10.93041016 -2.03164063 10.92332031 -3.20703125 10.91601562 C-10.40755442 10.69576955 -10.40755442 10.69576955 -16.25 14.375 Z"/>
<path transform="translate(213,232)" fill="#faf7f7" d="M0 0 C2.78356676 2.78356676 2.29700591 4.57334882 2.37890625 8.46875 C2.43014648 10.40814453 2.43014648 10.40814453 2.48242188 12.38671875 C2.5097649 13.75779969 2.53644995 15.12889389 2.5625 16.5 C2.62031746 19.17729593 2.68584491 21.85417064 2.75390625 24.53125 C2.77783447 25.72298828 2.8017627 26.91472656 2.82641602 28.14257812 C2.80922568 30.94524768 2.80922568 30.94524768 4 33 C10.93 33 17.86 33 25 33 C25.04898438 30.78539062 25.09796875 28.57078125 25.1484375 26.2890625 C25.20242492 24.14771683 25.25974104 22.00648442 25.31738281 19.86523438 C25.35569998 18.37541111 25.39054808 16.88549446 25.421875 15.39550781 C25.46746729 13.25551952 25.52546874 11.11617564 25.5859375 8.9765625 C25.6173584 7.68830566 25.6487793 6.40004883 25.68115234 5.07275391 C26 2 26 2 28 0 C33.33333333 -0.33333333 33.33333333 -0.33333333 36 1 C37.30804107 4.92412321 37.14277084 8.66417269 37.1328125 12.75390625 C37.13376923 13.61056381 37.13472595 14.46722137 37.13571167 15.34983826 C37.13639186 17.15957716 37.13454876 18.96931852 37.13037109 20.77905273 C37.12501403 23.55523122 37.13032487 26.33124839 37.13671875 29.10742188 C37.13605807 30.86458369 37.13477711 32.62174541 37.1328125 34.37890625 C37.13483673 35.21224991 37.13686096 36.04559357 37.13894653 36.90419006 C37.11496365 42.77007269 37.11496365 42.77007269 36 45 C31.87449131 45.17445227 27.75044004 45.30070887 23.62207031 45.38452148 C22.22129884 45.41949242 20.82077858 45.46709032 19.42089844 45.52807617 C6.30785005 46.08458571 6.30785005 46.08458571 1.2109375 41.74609375 C-7.28267133 32.86903443 -9.12766302 22.95456643 -9.3125 11.125 C-9.33030518 10.37476563 -9.34811035 9.62453125 -9.36645508 8.8515625 C-9.35863231 3.53689366 -9.35863231 3.53689366 -7.671875 1.01171875 C-5.07736107 -0.55832589 -2.95389615 -0.31424427 0 0 Z"/>
<path transform="translate(72.94140625,231.8671875)" fill="#faf7f7" d="M0 0 C0.68287582 -0.00095673 1.36575165 -0.00191345 2.06932068 -0.00289917 C3.5126047 -0.00357973 4.95589178 -0.0017341 6.39916992 0.00244141 C8.61579203 0.00779968 10.83221227 0.00248807 13.04882812 -0.00390625 C14.4492192 -0.00324561 15.84961015 -0.00196473 17.25 0 C18.53076416 0.00112793 19.81152832 0.00225586 21.13110352 0.00341797 C24.05859375 0.1328125 24.05859375 0.1328125 25.05859375 1.1328125 C25.15649945 2.63019374 25.18834239 4.13224142 25.18359375 5.6328125 C25.18746094 6.85484375 25.18746094 6.85484375 25.19140625 8.1015625 C25.05859375 10.1328125 25.05859375 10.1328125 24.05859375 11.1328125 C21.8036043 11.27953997 19.54427613 11.36036234 17.28515625 11.4140625 C16.26583511 11.44167664 16.26583511 11.44167664 15.22592163 11.46984863 C13.04523603 11.52875988 10.86447015 11.58148083 8.68359375 11.6328125 C5.8214503 11.70050687 2.95955411 11.77424934 0.09765625 11.8515625 C-1.17899902 11.88185547 -2.4556543 11.91214844 -3.77099609 11.94335938 C-6.96533396 11.99685759 -6.96533396 11.99685759 -9.94140625 13.1328125 C-9.97029139 16.27862673 -9.98816548 19.42440719 -10.00390625 22.5703125 C-10.01228516 23.46814453 -10.02066406 24.36597656 -10.02929688 25.29101562 C-10.03251953 26.14501953 -10.03574219 26.99902344 -10.0390625 27.87890625 C-10.04429932 28.66966553 -10.04953613 29.4604248 -10.05493164 30.27514648 C-10.14636534 32.14873939 -10.14636534 32.14873939 -8.94140625 33.1328125 C-6.49531627 33.29261687 -4.07409567 33.39210697 -1.625 33.44921875 C-0.89394547 33.46999985 -0.16289093 33.49078094 0.59031677 33.51219177 C2.93381031 33.57776274 5.27741914 33.63660682 7.62109375 33.6953125 C9.2063923 33.73849058 10.79167904 33.78210463 12.37695312 33.82617188 C16.27071412 33.9334517 20.16459147 34.0346974 24.05859375 34.1328125 C25.68510897 37.38584294 25.17312531 40.52506852 25.05859375 44.1328125 C21.65254824 47.53885801 9.15767363 45.96269077 4.22192383 46.01660156 C-9.0547013 45.9340985 -9.0547013 45.9340985 -13.97705078 41.03393555 C-15.91559869 38.527167 -17.47632761 35.93936513 -18.94140625 33.1328125 C-19.49699219 32.47023438 -20.05257812 31.80765625 -20.625 31.125 C-23.55676387 26.68820601 -22.9556054 21.14618329 -21.94140625 16.1328125 C-19.41697578 12.23046373 -16.3102437 9.30085831 -12.94140625 6.1328125 C-12.2246875 5.235625 -11.50796875 4.3384375 -10.76953125 3.4140625 C-7.5717359 -0.57634879 -4.93781158 0.00434475 0 0 Z"/>
<path transform="translate(111.4375,232.1875)" fill="#faf7f7" d="M0 0 C1.11181641 0.08314453 1.11181641 0.08314453 2.24609375 0.16796875 C8.46696222 1.8989018 11.9207937 7.6265462 15.5625 12.5625 C20.6755333 19.37815119 25.93111358 26.04746039 31.3359375 32.63378906 C32.32813408 33.84334184 33.31823438 35.05461901 34.30566406 36.26806641 C35.34167294 37.5411418 36.38473658 38.80847276 37.4296875 40.07421875 C38.5625 41.8125 38.5625 41.8125 38.5625 44.8125 C33.67978582 45.64648184 29.42894441 45.83780432 24.5625 44.8125 C20.55899243 41.65517633 17.82947599 37.95989966 14.94091797 33.7890625 C13.53069896 31.76689936 12.06177947 29.80363523 10.56640625 27.84375 C8.52665885 25.168895 6.50886832 22.48024745 4.51171875 19.7734375 C2.56819356 17.14733031 0.59438874 14.55030727 -1.41796875 11.9765625 C-2.11877563 11.079375 -2.11877563 11.079375 -2.83374023 10.1640625 C-3.71614586 9.03865717 -4.60220905 7.91610714 -5.49243164 6.796875 C-8.4375 3.03186937 -8.4375 3.03186937 -8.4375 0.8125 C-5.48235704 -0.06533158 -3.06808921 -0.28181755 0 0 Z"/>
<path transform="translate(317.80078125,231.41015625)" fill="#faf7f7" d="M0 0 C3.50719892 0.94065193 4.92947024 2.79630712 7.19921875 5.58984375 C7.86179687 6.30140625 8.524375 7.01296875 9.20703125 7.74609375 C14.46271988 13.39737185 17.4632747 17.34004582 17.4296875 25.29296875 C17.42775391 26.35515625 17.42582031 27.41734375 17.42382812 28.51171875 C17.40545898 30.15914063 17.40545898 30.15914063 17.38671875 31.83984375 C17.38607422 32.95359375 17.38542969 34.06734375 17.38476562 35.21484375 C17.33957551 43.44948699 17.33957551 43.44948699 16.19921875 44.58984375 C14.67993837 44.66164339 13.15754393 44.67376382 11.63671875 44.65234375 C10.81042969 44.64332031 9.98414063 44.63429688 9.1328125 44.625 C8.49472656 44.61339844 7.85664063 44.60179687 7.19921875 44.58984375 C5.77654013 41.7444865 5.97950006 39.22765823 5.8828125 36.05078125 C5.8199707 34.09785156 5.8199707 34.09785156 5.75585938 32.10546875 C5.71604576 30.7252633 5.67633353 29.34505492 5.63671875 27.96484375 C5.59352468 26.5768096 5.5499101 25.18878847 5.50585938 23.80078125 C5.39949875 20.39724119 5.29747161 16.99362597 5.19921875 13.58984375 C2.01326675 11.90033015 -0.37536811 11.27816638 -3.98828125 11.02734375 C-8.70141216 10.68921284 -8.70141216 10.68921284 -9.80078125 9.58984375 C-10.17164218 3.74878415 -10.17164218 3.74878415 -9.80078125 1.58984375 C-6.04794526 -0.91204691 -4.3157218 -0.6185173 0 0 Z"/>
<path transform="translate(75.1875,248.8671875)" fill="#faf7f7" d="M0 0 C1.25554687 -0.00128906 2.51109375 -0.00257813 3.8046875 -0.00390625 C4.46178711 -0.00181152 5.11888672 0.0002832 5.79589844 0.00244141 C7.80411335 0.00779016 9.81210459 0.00249559 11.8203125 -0.00390625 C13.07585937 -0.00261719 14.33140625 -0.00132812 15.625 0 C16.78644531 0.00112793 17.94789062 0.00225586 19.14453125 0.00341797 C21.8125 0.1328125 21.8125 0.1328125 22.8125 1.1328125 C22.9104057 2.63019374 22.94224864 4.13224142 22.9375 5.6328125 C22.94136719 6.85484375 22.94136719 6.85484375 22.9453125 8.1015625 C22.8125 10.1328125 22.8125 10.1328125 21.8125 11.1328125 C19.66691173 11.22056855 17.51845579 11.23976469 15.37109375 11.23046875 C14.06591797 11.22724609 12.76074219 11.22402344 11.41601562 11.22070312 C10.0273431 11.21234651 8.63867123 11.20388155 7.25 11.1953125 C5.85742344 11.19029916 4.46484519 11.18573597 3.07226562 11.18164062 C-0.3476987 11.16980684 -3.76757844 11.1533213 -7.1875 11.1328125 C-7.21438151 9.48706684 -7.23384123 7.84119837 -7.25 6.1953125 C-7.26160156 5.27878906 -7.27320312 4.36226562 -7.28515625 3.41796875 C-7.08736831 -1.21026908 -3.93382766 0.00382031 0 0 Z"/>
<path transform="translate(143.625,231.9375)" fill="#faf7f7" d="M0 0 C1.18851563 0.00902344 2.37703125 0.01804688 3.6015625 0.02734375 C4.51679688 0.03894531 5.43203125 0.05054688 6.375 0.0625 C5.77836514 3.16143927 4.8448686 5.06542174 2.87109375 7.515625 C2.37802734 8.134375 1.88496094 8.753125 1.37695312 9.390625 C0.86068359 10.02484375 0.34441406 10.6590625 -0.1875 11.3125 C-0.96770508 12.28703125 -0.96770508 12.28703125 -1.76367188 13.28125 C-3.044844 14.87977669 -4.33414005 16.47178626 -5.625 18.0625 C-9.36967376 16.33600831 -11.39739363 14.61016941 -13.625 11.0625 C-13.625 6.68099915 -11.51070859 4.21054573 -8.625 1.0625 C-5.74084117 -0.37957941 -3.20778472 -0.03144887 0 0 Z"/>
<path transform="translate(115,259)" fill="#faf7f7" d="M0 0 C3.84375 1.7890625 3.84375 1.7890625 5.25 3.6875 C6.31670917 6.97651994 6.3679951 9.56537906 6 13 C4.13291495 15.36497439 2.67938569 16.66030715 0 18 C-2.37402501 18.07116382 -4.75000677 18.08409085 -7.125 18.0625 C-8.40632813 18.05347656 -9.68765625 18.04445313 -11.0078125 18.03515625 C-12.48894531 18.01775391 -12.48894531 18.01775391 -14 18 C-9.89742065 11.426549 -5.27877224 5.66731132 0 0 Z"/>
<path transform="translate(327.03125,222.8671875)" fill="#faf7f7" d="M0 0 C0.8146875 0.00257813 1.629375 0.00515625 2.46875 0.0078125 C3.2834375 0.00523437 4.098125 0.00265625 4.9375 0 C6.96875 0.1328125 6.96875 0.1328125 7.96875 1.1328125 C8.04054964 2.65209288 8.05267007 4.17448732 8.03125 5.6953125 C8.02222656 6.52160156 8.01320313 7.34789062 8.00390625 8.19921875 C7.99230469 8.83730469 7.98070312 9.47539062 7.96875 10.1328125 C4.95550805 11.63943347 2.28588623 11.31051623 -1.03125 11.1328125 C-3.03125 9.1328125 -3.03125 9.1328125 -3.26171875 7.22265625 C-3.12160248 0.20410478 -3.12160248 0.20410478 0 0 Z"/>
</svg>