<svg xml:space="preserve" style="max-height: 500px" viewBox="147 657 1215 207.00000000000003" y="0px" x="0px" xmlns:xlink="http://www.w3.org/1999/xlink" xmlns="http://www.w3.org/2000/svg" id="Layer_1" version="1.1" width="1215" height="207.00000000000003">
<style type="text/css">
	.st0{fill:none;}
	.st1{fill:#F9FAFB;}
	.st2{fill:#F4F5F5;}
	.st3{fill:#F5F5F5;}
	.st4{fill:#FAFBFB;}
	.st5{fill:#FFFFFF;}
	.st6{fill:#FCFDFF;}
</style>
<rect height="1500" width="1500"/>
<g>
	<g>
		<path d="M450.96,830.64c-12.28,0-23.9-0.03-35.52,0.02c-4.23,0.02-7.54-1.07-10.08-4.33&#10;&#9;&#9;&#9;c-32.43-41.63-64.95-83.22-97.67-125.1c30.04-7.88,41.59-4.25,57.18,15.88c24.77,31.98,50.08,63.63,74.92,95.58&#10;&#9;&#9;&#9;C443.78,817.83,449.48,822.3,450.96,830.64z" class="st1"/>
		<path d="M303.6,831.13c13.92-17.97,26.22-33.75,38.37-49.62c1.79-2.34,3.38-3.57,6.76-2.32&#10;&#9;&#9;&#9;c9.33,3.47,16.55,25.02,13.12,33.18C351.16,837.89,327.65,830.07,303.6,831.13z" class="st2"/>
		<path d="M451.86,698.03c-13.29,17.19-24.51,31.26-35.16,45.67c-5.25,7.11-8.34,5.35-13.27-0.4&#10;&#9;&#9;&#9;c-15.8-18.42-15.78-20.18-2.84-37.32c4.28-5.68,8.59-8.32,16.21-8.04C427.36,698.33,437.97,698.03,451.86,698.03z" class="st3"/>
		<path d="M747.76,765.33c0.02,18.56,0.04,37.11,0.06,55.67c0,3.13-0.23,6.75-2.77,8.57c-1.65,1.19-3.83,1.24-5.86,1.26&#10;&#9;&#9;&#9;c-22.7,0.14-45.39,0.27-68.09,0.41c-4.26,0.03-8.66,0.03-12.6-1.59c-3.6-1.48-6.53-4.19-9.38-6.84&#10;&#9;&#9;&#9;c-6.27-5.85-12.59-11.74-17.71-18.62c-9.64-12.94-14.67-28.85-16.78-44.84s-1.48-32.21-0.77-48.33c0.11-2.61,0.24-5.27,1.22-7.69&#10;&#9;&#9;&#9;c2.6-6.45,12.31-7.39,18.27-6.52c4.26,0.63,8.51,3.2,9.84,7.29c0.57,1.73,0.58,3.59,0.58,5.41c0.06,22.56,0.11,45.11,0.17,67.67&#10;&#9;&#9;&#9;c0.02,6.97,0.53,15,6.1,19.19c3.88,2.92,9.11,3.05,13.97,3.06c14.28,0.03,28.56,0.07,42.83,0.1c2.6,0.01,5.42-0.06,7.46-1.67&#10;&#9;&#9;&#9;c2.76-2.18,2.97-6.21,2.96-9.72c-0.13-26.26-0.25-52.52-0.38-78.78c-0.03-5.78,1.78-9.78,7.89-11.25&#10;&#9;&#9;&#9;c8.39-2.02,21.98-2.03,22.93,8.72C749.39,726,747.74,746.08,747.76,765.33z" class="st4"/>
		<path d="M517.56,829.17c-15.82,0-31.64-0.11-47.45,0.07c-4.09,0.05-5.68-1.13-5.48-5.39&#10;&#9;&#9;&#9;c0.3-6.61,0.25-13.26-0.03-19.87c-0.17-3.99,1.26-5.16,5.19-5.14c29.22,0.09,58.45-0.06,87.67-0.03c3.56,0,6.65-0.57,8.6-3.75&#10;&#9;&#9;&#9;c1.63-2.66,4.65-4.95,2.59-8.77c-2.06-3.82-4.13-6.77-9.48-6.69c-21.54,0.32-43.08,0.07-64.62,0.2c-3.23,0.02-5.33-1.09-7.26-3.52&#10;&#9;&#9;&#9;c-8.69-10.94-12.94-21.83-21.83-32.61c-1.89-2.29-2.01-3.9-0.1-6.2c9.23-11.09,13.86-22.25,22.93-33.47&#10;&#9;&#9;&#9;c1.75-2.16,3.63-3.17,6.49-3.16c32.09,0.07,66.42,0.05,98.51-0.05c3.29-0.01,4.58,0.96,4.49,4.37c-0.2,6.92-0.26,13.86,0.01,20.78&#10;&#9;&#9;&#9;c0.16,4.09-1.43,5.03-5.28,5.02c-29.07-0.12-60.4,0.03-89.47-0.06c-4.11-0.01-6.91,1.5-8.75,5.04c-3.25,6.29,1.46,14.2,8.56,14.21&#10;&#9;&#9;&#9;c21.84,0.04,43.69,0.06,65.53-0.06c3.14-0.02,5.36,0.81,7.33,3.32c8.26,10.51,12.09,20.95,20.58,31.27&#10;&#9;&#9;&#9;c2.06,2.51,2.41,4.34,0.22,6.94c-9.58,11.38-14.55,22.87-24,34.37c-1.88,2.29-4.1,3.12-7.06,3.1c-15.97-0.11-31.94-0.05-47.9-0.05&#10;&#9;&#9;&#9;C517.56,829.08,517.56,829.12,517.56,829.17z" class="st5"/>
		<path d="M769.8,764.2c0-20.4,0.09-40.8-0.08-61.21c-0.03-3.86,1.08-5.05,5-5.04c33.8,0.13,67.6,0.15,101.41-0.04&#10;&#9;&#9;&#9;c5.18-0.03,8.55,1.62,11.74,5.8c8.29,10.87,17.05,21.39,25.86,31.86c2.31,2.74,2.15,4.56-0.01,7.17&#10;&#9;&#9;&#9;c-8.7,10.55-17.31,21.18-25.78,31.92c-2.62,3.32-5.45,5.4-9.86,4.71c-1.13-0.18-2.67-0.55-3.21,1.04&#10;&#9;&#9;&#9;c-0.43,1.27,0.85,1.87,1.53,2.66c12.45,14.31,24.92,28.59,37.34,42.93c0.94,1.08,2.95,2.02,2.14,3.71&#10;&#9;&#9;&#9;c-0.78,1.62-2.8,0.89-4.28,0.9c-9.81,0.07-19.63-0.13-29.44,0.15c-3.71,0.11-6.15-1.26-8.39-3.93&#10;&#9;&#9;&#9;c-15.58-18.57-31.21-37.11-46.86-55.63c-5.32-6.3-10.74-12.5-16.12-18.75c-0.68-0.79-2.14-1.32-1.73-2.52&#10;&#9;&#9;&#9;c0.52-1.54,2.12-0.91,3.27-0.91c19.32-0.05,38.63-0.05,57.95-0.08c5.24-0.01,10.61-5.2,10.52-10.12&#10;&#9;&#9;&#9;c-0.09-5.13-4.98-9.82-10.35-9.83c-21.65,0-43.3,0.11-64.96-0.03c-3.93-0.02-5.05,1.28-5.03,5.14&#10;&#9;&#9;&#9;c0.19,30.06,0.19,60.11,0.26,90.17c0.02,6.27,0.05,6.27-6.11,6.31c-6.39,0.04-12.78-0.11-19.16,0.21&#10;&#9;&#9;&#9;c-4.13,0.21-5.77-0.83-5.72-5.39c0.24-20.4,0.1-40.8,0.1-61.2C769.84,764.2,769.82,764.2,769.8,764.2z" class="st5"/>
		<path d="M1102.02,697.92c10.75,0,21.5,0.08,32.25-0.04c4.39-0.05,7.75,1.48,10.49,4.94&#10;&#9;&#9;&#9;c11.46,14.51,23.2,28.8,35.29,42.79c1.63,1.89,2.74,3.96,2.68,6.72c-0.16,7.78-0.12,15.58,0.06,23.36&#10;&#9;&#9;&#9;c0.07,3.02-0.88,5.42-2.76,7.67c-11.55,13.84-23.12,27.68-34.58,41.59c-3.21,3.89-7.02,5.67-12.14,5.64&#10;&#9;&#9;&#9;c-20.88-0.13-41.75-0.06-62.63,0.07c-4.2,0.03-7.65-1.24-10.31-4.4c-12.43-14.75-24.8-29.55-37.21-44.32&#10;&#9;&#9;&#9;c-1.5-1.79-1.85-3.83-1.82-6.09c0.1-7.63,0.21-15.27,0.09-22.9c-0.05-3.03,0.99-5.39,2.9-7.58&#10;&#9;&#9;&#9;c11.79-13.43,23.19-27.19,34.18-41.28c3.42-4.38,7.36-6.52,13.12-6.29c10.11,0.39,20.25,0.11,30.38,0.11&#10;&#9;&#9;&#9;C1102.02,697.93,1102.02,697.93,1102.02,697.92z" class="st5"/>
		<path d="M243.45,799.35c14.64,0.01,29.28,0.09,43.92-0.06c3.22-0.03,4.44,0.92,4.38,4.21&#10;&#9;&#9;&#9;c-0.15,7.63-0.08,15.26,0.05,22.89c0.05,2.83-0.63,4.28-3.88,4.27c-29.28-0.08-58.56-0.04-87.84-0.03c-3.34,0-6.05-1.36-8.14-3.87&#10;&#9;&#9;&#9;c-12.61-15.17-25.16-30.38-37.8-45.52c-1.33-1.6-1.57-3.27-1.57-5.18c0-7.63,0.12-15.27-0.16-22.89c-0.12-3.1,1.01-5.36,2.84-7.56&#10;&#9;&#9;&#9;c11.71-14.1,23.48-28.16,35.07-42.36c2.98-3.65,6.32-5.43,11.14-5.41c28.5,0.13,57,0.11,85.51-0.05c3.95-0.02,5.13,1.24,4.97,5.08&#10;&#9;&#9;&#9;c-0.28,6.84-0.31,13.71-0.06,20.55c0.15,4.19-1.1,5.63-5.53,5.61c-27.88-0.17-55.76-0.05-83.64-0.01&#10;&#9;&#9;&#9;c-12.9,0.02-18.8,5.79-18.89,18.76c-0.08,11.83,0.02,23.67,0.18,35.5c0.14,10.26,6.04,15.99,16.47,16.04&#10;&#9;&#9;&#9;C214.79,799.4,229.12,799.35,243.45,799.35z" class="st5"/>
		<path d="M247.98,779.66c-12.61,0-25.22-0.19-37.83,0.1c-4.65,0.11-5.89-1.5-5.7-5.91c0.29-6.99,0.15-14.01-0.14-21&#10;&#9;&#9;&#9;c-0.12-2.89,0.75-3.95,3.58-3.95c26.93,0.04,53.87,0.04,80.8,0.01c2.39,0,3.23,0.83,3.17,3.33c-0.18,7.62-0.26,15.26-0.03,22.88&#10;&#9;&#9;&#9;c0.11,3.6-1.25,4.52-4.61,4.48c-13.08-0.14-26.15-0.06-39.23-0.06C247.98,779.58,247.98,779.62,247.98,779.66z" class="st6"/>
		<path d="M1102.35,799.37c-11.06,0-22.12,0.05-33.18-0.02c-10.29-0.07-16.79-6.64-16.85-16.99c-0.06-11.68-0.08-23.36-0.05-35.04&#10;&#9;&#9;&#9;c0.04-11.8,6.35-18.21,18.18-18.27c21.18-0.11,42.37-0.16,63.56-0.1c11.91,0.03,18.14,6.29,18.19,18.15&#10;&#9;&#9;&#9;c0.05,11.68,0.02,23.36-0.14,35.04c-0.15,11.26-6.26,17.21-17.47,17.24c-10.75,0.03-21.5,0.01-32.25,0.01&#10;&#9;&#9;&#9;C1102.35,799.39,1102.35,799.38,1102.35,799.37z"/>
		<g>
			<path d="M973.6,784.02c0-12.21,0.2-24.42-0.05-36.62c-0.3-15.01-6-20.59-20.83-21.01c-2.85-0.08-5.7-0.01-8.56,0&#10;&#9;&#9;&#9;&#9;c-19.5,0.07-19.09,0.05-19.75-19.7c-0.27-8.01,1.5-9.69,10-11.35c26.92-5.27,37.33,14.33,51.92,29.7&#10;&#9;&#9;&#9;&#9;c14.57,15.34,19.88,32.12,17.84,52.75c-1.35,13.7-0.59,27.66-0.1,41.48c0.23,6.63-1.25,9-8.51,9.02&#10;&#9;&#9;&#9;&#9;c-21.96,0.06-21.96,0.42-21.96-21.07C973.6,799.48,973.6,791.75,973.6,784.02z" class="st5"/>
			<path d="M1004.2,685.83c2.1,9.5-0.59,16.43-14.31,14.34c-7.66-1.17-18.69,3.32-16.47-11.62&#10;&#9;&#9;&#9;&#9;c1.28-8.61-5.54-21.35,13.04-19.91C1004.04,670,1004.12,668.86,1004.2,685.83z" class="st4"/>
		</g>
	</g>
	<path d="M1347.53,764.2c0,20.73-0.09,41.46,0.08,62.18c0.03,4.01-1.17,5.12-5.11,4.96&#10;&#9;&#9;c-7.66-0.31-15.34-0.12-23.01,0.07c-2.59,0.06-4.4-0.74-6.1-2.69c-23.55-27.03-47.15-54.03-70.79-80.98&#10;&#9;&#9;c-1.45-1.65-2.63-4.92-5.02-4.03c-2.25,0.84-0.87,3.99-0.87,6.09c-0.02,25.47,0,50.95,0.15,76.42c0.02,3.6-0.95,5.15-4.76,5.06&#10;&#9;&#9;c-7.35-0.17-14.72-0.07-22.08,0.18c-3.1,0.11-4.16-0.99-4.16-4.05c0.03-42.25,0.01-84.49-0.06-126.74c0-2.77,0.8-3.97,3.76-3.93&#10;&#9;&#9;c8.61,0.12,17.23,0.07,25.84-0.08c2.48-0.04,4.07,1.06,5.58,2.81c23.46,27.11,46.93,54.22,70.47,81.26&#10;&#9;&#9;c1.25,1.44,2.31,4.38,4.45,3.49c2.04-0.86,0.88-3.73,0.88-5.69c-0.02-25.63-0.06-51.27-0.26-76.9c-0.03-3.63,0.9-5.13,4.72-5.01&#10;&#9;&#9;c7.2,0.22,14.41,0.2,21.61-0.1c3.9-0.17,4.74,1.46,4.72,5.01c-0.12,20.89-0.06,41.77-0.06,62.66&#10;&#9;&#9;C1347.51,764.2,1347.52,764.2,1347.53,764.2z" class="st5"/>
</g>
</svg>